<svg id="svg" xmlns="http://www.w3.org/2000/svg" xmlns:xlink="http://www.w3.org/1999/xlink" width="400" height="400" viewBox="0, 0, 400,400"><g id="svgg"><path id="path0" d="M23.043 26.432 C 21.417 27.291,19.077 29.316,17.843 30.932 L 15.600 33.871 15.356 50.935 L 15.112 68.000 36.756 68.000 L 58.400 68.000 58.400 46.400 L 58.400 24.800 42.200 24.835 C 27.717 24.867,25.687 25.036,23.043 26.432 M70.400 46.394 L 70.400 68.000 206.400 68.000 L 342.400 68.000 342.400 200.400 L 342.400 332.800 200.400 332.800 L 58.400 332.800 58.400 327.624 L 58.400 322.448 68.600 322.198 L 78.800 321.948 68.600 321.774 L 58.400 321.600 58.400 200.400 L 58.400 79.200 36.794 79.200 L 15.187 79.200 15.394 223.062 L 15.600 366.925 17.846 369.870 C 23.012 376.643,3.879 376.000,200.400 376.000 C 392.478 376.000,377.411 376.375,381.704 371.485 C 385.866 366.743,385.600 378.414,385.600 200.408 C 385.600 14.738,386.233 32.605,379.470 27.446 L 376.525 25.200 223.462 24.994 L 70.400 24.788 70.400 46.394 M70.400 144.800 L 70.400 210.400 91.191 210.400 L 111.982 210.400 112.191 178.352 L 112.400 146.304 133.549 178.352 L 154.697 210.400 175.749 210.400 L 196.800 210.400 196.800 144.800 L 196.800 79.200 176.009 79.200 L 155.218 79.200 155.009 111.884 L 154.800 144.568 133.600 111.886 L 112.400 79.205 91.400 79.203 L 70.400 79.200 70.400 144.800 M209.600 144.800 L 209.600 210.400 242.330 210.400 C 282.099 210.400,287.655 209.605,301.337 201.953 C 342.488 178.940,344.037 113.521,304.005 89.203 C 289.864 80.613,280.977 79.200,241.095 79.200 L 209.600 79.200 209.600 144.800 M272.271 117.618 C 283.415 121.060,289.607 129.770,290.233 142.884 C 291.170 162.511,281.359 172.350,259.800 173.406 L 251.200 173.827 251.200 144.913 L 251.200 116.000 259.116 116.000 C 264.802 116.000,268.508 116.456,272.271 117.618 M277.200 216.818 C 258.794 220.512,249.255 231.142,249.218 248.000 C 249.179 265.999,254.718 271.499,284.223 282.757 C 293.441 286.274,296.800 288.750,296.800 292.026 C 296.800 298.987,285.672 297.862,284.341 290.765 L 283.822 288.000 266.199 288.000 L 248.576 288.000 249.017 292.200 C 252.744 327.742,317.467 335.394,330.455 301.828 C 337.992 282.348,329.483 269.190,302.360 258.384 C 285.608 251.710,281.305 247.815,285.760 243.360 C 288.722 240.398,295.200 243.931,295.200 248.508 L 295.200 250.400 313.312 250.400 L 331.424 250.400 330.983 246.200 C 328.717 224.592,304.468 211.344,277.200 216.818 M69.600 231.600 L 69.600 245.600 82.840 245.600 C 99.309 245.600,102.400 246.925,102.400 253.986 C 102.400 261.174,99.549 262.400,82.840 262.400 L 69.600 262.400 69.600 264.343 C 69.600 265.411,70.061 266.761,70.624 267.343 C 71.188 267.924,73.123 271.460,74.924 275.200 C 76.726 278.940,83.080 291.000,89.046 302.000 L 99.891 322.000 134.691 322.208 L 169.490 322.417 172.115 314.408 L 174.740 306.400 191.747 306.400 L 208.753 306.400 211.239 314.400 L 213.724 322.400 231.355 322.400 C 247.762 322.400,248.960 322.303,248.597 321.000 C 248.383 320.230,240.381 298.180,230.816 272.000 C 221.251 245.820,212.888 222.864,212.232 220.986 L 211.040 217.572 191.803 217.786 L 172.566 218.000 154.083 268.553 C 143.917 296.358,135.355 318.858,135.056 318.553 C 134.142 317.624,114.230 282.295,114.525 282.126 C 114.676 282.039,116.559 281.146,118.709 280.141 C 142.116 269.204,141.917 233.616,118.386 222.146 C 110.973 218.533,104.558 217.629,86.200 217.614 L 69.600 217.600 69.600 231.600 M200.000 280.181 C 200.000 280.521,196.181 280.800,191.514 280.800 C 183.856 280.800,183.080 280.667,183.551 279.440 C 183.838 278.691,185.759 272.734,187.821 266.201 L 191.568 254.323 195.784 266.943 C 198.103 273.883,200.000 279.841,200.000 280.181 " stroke="none" fill="#FDBE01" fill-rule="evenodd"></path></g></svg>